<?xml version="1.0" standalone="no"?>
<!DOCTYPE svg PUBLIC "-//W3C//DTD SVG 20010904//EN"
 "http://www.w3.org/TR/2001/REC-SVG-20010904/DTD/svg10.dtd">
<svg version="1.0" xmlns="http://www.w3.org/2000/svg"
 width="475.000000pt" height="475.000000pt" viewBox="0 0 475.000000 475.000000"
 preserveAspectRatio="xMidYMid meet">
<metadata>
Created by potrace 1.14, written by Peter Selinger 2001-2017
</metadata>
<g transform="translate(0.000000,475.000000) scale(0.100000,-0.100000)"
fill="#000000" stroke="none">
<path d="M1763 2933 l-33 -4 0 -439 c0 -409 1 -439 18 -444 114 -33 250 -38
329 -12 68 23 126 75 160 144 25 51 28 67 28 162 0 89 -4 113 -24 157 -28 62
-92 125 -146 143 -60 20 -144 20 -198 0 -26 -10 -49 -15 -52 -10 -3 4 -4 54
-4 111 0 57 0 125 0 152 -1 51 2 50 -78 40z m288 -387 c70 -29 102 -91 102
-201 1 -103 -23 -162 -83 -201 -36 -24 -52 -28 -118 -28 -120 -1 -111 -17
-110 207 l0 195 37 15 c73 31 120 35 172 13z"/>
<path d="M3025 2931 l-30 -6 -2 -386 c-3 -423 0 -445 53 -485 38 -30 133 -45
135 -23 5 52 3 84 -6 84 -25 2 -56 18 -64 34 -6 10 -10 181 -9 402 l0 384 -24
2 c-12 0 -36 -2 -53 -6z"/>
<path d="M148 2649 c-31 -5 -72 -12 -90 -17 l-33 -8 -3 -297 -2 -297 55 0 55
0 0 260 0 260 23 0 c12 1 39 3 60 6 88 13 138 -16 158 -91 7 -22 12 -127 12
-238 l1 -198 55 3 54 3 0 165 c0 199 -4 268 -14 297 -7 18 -2 24 29 39 47 22
137 27 173 9 54 -28 62 -68 63 -303 l1 -213 55 3 55 3 -1 225 c-1 209 -3 230
-23 275 -36 82 -88 114 -193 119 -54 2 -112 -11 -171 -39 -32 -15 -35 -14 -79
10 -51 29 -139 37 -240 24z"/>
<path d="M1207 2646 c-130 -36 -211 -170 -202 -336 7 -122 65 -219 158 -264
149 -71 302 -19 377 128 31 62 34 75 34 154 0 107 -21 174 -73 234 -71 80
-189 114 -294 84z m194 -133 c57 -62 77 -170 49 -273 -16 -59 -74 -116 -128
-125 -122 -20 -206 72 -203 225 2 148 69 224 190 217 48 -4 58 -8 92 -44z"/>
<path d="M2346 2640 c-18 -7 50 -224 120 -378 13 -29 24 -55 24 -58 0 -2 16
-37 36 -77 57 -115 57 -110 23 -157 -40 -55 -87 -74 -161 -66 -51 5 -58 3 -59
-12 0 -9 -3 -29 -5 -44 -4 -25 -2 -27 42 -34 155 -23 238 36 320 228 61 143
203 582 191 594 -1 2 -27 4 -56 6 l-54 3 -43 -168 c-38 -150 -94 -330 -100
-324 -21 20 -164 428 -164 466 0 16 -9 20 -50 23 -28 1 -57 1 -64 -2z"/>
<path d="M3444 2416 c-39 -17 -71 -51 -90 -95 -17 -40 -17 -143 -1 -189 32
-88 127 -130 230 -101 32 9 37 14 37 40 0 27 -2 29 -22 18 -12 -6 -46 -11 -75
-11 -43 0 -59 4 -79 23 -31 29 -47 90 -40 153 10 93 65 136 151 119 52 -11 65
-6 65 28 0 30 -119 40 -176 15z"/>
<path d="M3777 2418 c-42 -11 -56 -30 -38 -52 11 -13 17 -12 46 0 19 8 52 14
74 14 47 0 81 -35 81 -84 l0 -31 -70 -2 c-128 -5 -198 -58 -184 -140 11 -65
57 -103 119 -98 17 1 40 3 52 3 12 1 35 13 51 27 37 31 40 31 44 3 2 -15 11
-24 26 -26 22 -3 22 -3 22 148 0 177 -10 213 -64 235 -40 17 -102 18 -159 3z
m163 -228 c0 -39 -24 -86 -50 -100 -35 -19 -91 -21 -115 -6 -43 28 -34 95 15
121 12 6 51 13 86 14 l64 2 0 -31z"/>
<path d="M4126 2422 c-3 -3 -6 -92 -6 -199 l0 -193 30 0 30 0 0 120 c0 135 12
177 56 207 15 10 44 17 65 17 30 -1 38 3 43 19 7 30 -1 37 -42 37 -39 0 -99
-30 -108 -55 -4 -8 -11 -15 -17 -15 -6 0 -8 3 -5 6 11 10 -8 57 -24 60 -9 1
-19 -1 -22 -4z"/>
<path d="M4492 2410 c-66 -41 -92 -102 -88 -202 4 -79 28 -125 84 -160 30 -19
50 -23 112 -22 88 1 118 13 118 49 0 22 -4 24 -22 19 -133 -43 -216 -10 -227
91 l-4 30 130 0 c72 0 133 3 136 8 3 5 4 29 2 55 -4 55 -40 115 -83 137 -39
20 -121 17 -158 -5z m143 -52 c15 -13 28 -38 31 -58 l6 -35 -101 -1 c-112 -1
-118 4 -85 67 26 52 104 66 149 27z"/>
</g>
</svg>
